<?xml version="1.0" encoding="UTF-8"?><svg id="Layer_1" xmlns="http://www.w3.org/2000/svg" viewBox="0 0 374.24 94.01"><defs><style>.cls-1{fill:none;stroke:#fff;stroke-linecap:round;stroke-linejoin:round;stroke-width:2px;}</style></defs><path class="cls-1" d="m129.88,72.76c2.68,1.87,5.61,1.22,8.52.85,3.51-.45,7.01-.88,10.56-.86,1.07,0,1.83.57,2.64,1.1"/><path class="cls-1" d="m58.24,64c-1.64-1.23-3.56-1.7-5.52-2.03-2.32-.39-4.27-1.43-5.88-3.13"/><path class="cls-1" d="m314.8,35.8c.64-.03,1.29.08,1.92-.12-.22.75-.08,1.52-.12,2.28"/><path class="cls-1" d="m186.88,35.56h2.4"/><path class="cls-1" d="m10.72,71.8c.04.56.08,1.12.12,1.68"/><path class="cls-1" d="m289.48,20.86c-1.78.58-3.31,1.51-4.7,2.8-3.39,3.17-6.91,6.21-10.29,9.39-3.38,3.18-6.66,6.46-9.97,9.71-1.43,1.41-2.79,2.89-4.21,4.31-.63.63-.97,1.43-1.44,2.16-2.26,3.52-5.02,6.65-7.55,9.97-1.38,1.82-2.99,3.45-4.21,5.39-.54.85-.97,1.74-1.08,2.76"/><path class="cls-1" d="m250.6,50.92c-.66,1.42-1.76,2.48-3.01,3.34-1.37.94-2.62,2-3.84,3.13-1.71,1.58-3.68,2.82-5.63,4.09-5.27,3.41-10.52,6.86-15.85,10.19-4.13,2.58-8.21,5.28-12.83,6.99-1.24.46-2.18,1.37-3.12,2.27-.68.65-1.44,1.02-2.4.78"/><path class="cls-1" d="m189.76,60.28c-2.15-.51-4.01.37-5.88,1.2-3.12,1.38-6.02,3.14-8.77,5.15-.35.26-.7.52-.94.86-.51.74-1.19,1.11-2.05,1.32-1.57.39-3.13.84-4.68,1.31-3.25.98-6.48,2.01-9.72,2.99-.86.26-1.76.41-2.64.61-1.56.36-2.99.6-4.29,1.96-1.57,1.63-4.11,1.77-6.29,2.32-2.11.53-4.31.71-6.47.99-.71.09-1.44.01-2.16.01"/><path class="cls-1" d="m250.24,1c-2,.34-2.82,2.13-4.04,3.4-.52.53-1.1,1.08-1.48,1.76-.23.4-.6.51-1.07.5-1.43-.04-2.6.49-3.74,1.4-5.02,4-9.56,8.52-14,13.12-3.48,3.6-6.89,7.28-10.19,11.04-3.01,3.43-6.18,6.73-8.93,10.4-.76,1.01-1,2.1-1.17,3.26"/><path class="cls-1" d="m74.32,42.82c-2.17,1.09-3.98,2.64-5.63,4.39-.66.7-1.22,1.01-2.31.78-1.43-.31-2.96.08-4.29.68-4.24,1.88-8.3,4.12-12.35,6.37-1.19.66-2.39,1.47-3.14,2.72-.19.31-.51.41-.84.48-1.35.31-2.65.88-4.08.73-.6-.06-1.08.27-1.56.59-6.01,4.05-12.6,7.03-19.09,10.18-3.98,1.93-8.03,3.74-12.24,5.16-2.04.69-4.12,1.24-6.12,2.04-.62.25-1.21.49-1.67.98"/><path class="cls-1" d="m244.12,6.76c.51,2.74-.86,4.83-2.41,6.84-2.01,2.61-4.28,5-6.46,7.46-5.75,6.5-12.04,12.44-18.4,18.32-2.23,2.06-4.52,4.11-7.17,5.67-.72.42-1.41.89-2.28.83-2.05-.14-3.36,1.17-4.67,2.41-3.16,2.96-6.15,6.09-9.46,8.9-.83.71-1.55,1.57-2.43,2.25-.76.58-.98,1.38-1.24,2.27-.55,1.9-1.84,3.45-2.97,5.04-1.32,1.85-2.77,3.61-4.67,4.93-1.54,1.07-3.26,1.08-5.04.86-.59-.07-.56-.58-.83-.87-.94-.98-1.85-1.99-2.77-2.99"/><path class="cls-1" d="m373.24,73.18c-1.89.46-3.83.62-5.76.76-7.47.54-14.95.75-22.44.59-3.6-.08-7.21.06-10.8-.12-4.28-.22-8.56-.31-12.84-.49-5.13-.21-10.24-.68-15.36-1.05-5.48-.39-10.97-.74-16.44-1.22-4-.35-8.01-.67-12-1.1-6.95-.76-13.88-1.54-20.88-1.67-2.6-.05-5.21-.07-7.8-.44-.5-.07-.99-.13-1.44-.38-1.01-.56-1.92-.51-3.02-.04-1.43.6-2.98.95-4.54,1.13"/><path class="cls-1" d="m122.2,75.16c-.2,1.75-1.46,2.71-2.77,3.59-2.68,1.8-5.63,3.13-8.51,4.58-5.52,2.78-11.2,5.21-17.06,7.15-4.26,1.41-8.68,2.05-13.18,2.38-3.22.24-6.42.17-9.6-.1-5.78-.49-11.34-1.87-16.19-5.26-1.13-.79-2.09-1.8-2.92-2.96-.92-1.28-.93-2.54-.59-3.98.51-2.19,1.66-4.09,2.54-6.11,1.33-3.07,2.91-6.03,4.42-9.01.32-.64.7-1.13,1.34-1.44.49-.24.65-.69.88-1.18.86-1.81,1.84-3.56,2.85-5.29.61-1.04,1.32-2.03,2.03-3,1.36-1.87,2.04-3.95,2.15-6.24"/><path class="cls-1" d="m60.52,63.64c5.64,2,11.4,3.55,17.28,4.68,2.68.52,5.36,1.05,8.04,1.56,4.45.84,8.94,1.44,13.44,1.93,2.56.28,5.11.75,7.68.91,1.56.1,3.11.37,4.68.4,2.82.06,5.59.61,8.4.84.12,0,.26.05.36.12,2.3,1.67,4.43.12,6.59-.4.39-.09.79-.36,1.21-.43.96-.16,1.58-.63,1.94-1.57.52-1.36,1.7-2.24,2.77-3.1,4.37-3.51,8.23-7.53,12.09-11.56,2.71-2.84,5.3-5.82,7.43-9.13,1.79-2.78,3.49-5.66,4.09-8.99.92-5.11-1.06-9.07-4.89-12.37-4.89-4.22-10.61-6.88-16.58-9.09-3.79-1.4-7.72-2.42-11.65-3.33-3.44-.8-6.93-1.42-10.42-2.03-2.52-.44-5.08-.65-7.58-1.23-1-.23-2.07-.08-3.11-.16-6.23-.45-12.47-.72-18.72-.76-4.72-.03-9.44-.1-14.16-.05-3.57.04-7.13.53-10.68.91-5.02.54-10.02,1.19-15,2.04-7.61,1.29-15.1,3-22.44,5.42-3.76,1.24-7.48,2.59-10.91,4.59-1.8,1.05-3.38,2.37-4.6,4.16-1.31,1.92-.96,3.85-.16,5.64,1.23,2.77,3.19,5.1,5.22,7.35,3.49,3.87,7.81,6.62,12.25,9.24,4.62,2.73,9.32,5.29,14.4,7.09,1.41.5,2.62,1.29,3.24,2.75"/></svg>